<svg xmlns="http://www.w3.org/2000/svg" width="32" height="32"><g color="#000" font-family="sans-serif" font-weight="400"><path style="line-height:normal;text-indent:0;text-align:start;text-decoration-line:none;text-decoration-style:solid;text-decoration-color:#000;text-transform:none;block-progression:tb;isolation:auto;mix-blend-mode:normal" fill="#cad1d8" d="M16.494 1022.361a.5.5 0 0 0-.404.196l-10 13a.5.5 0 0 0 .396.804h4.5v14.5a.5.5 0 0 0 .5.5h10a.5.5 0 0 0 .5-.5v-14.5h4.5a.5.5 0 0 0 .397-.804l-10-13a.5.5 0 0 0-.389-.196zm-.008 1.323 8.983 11.677h-3.983a.5.5 0 0 0-.5.5v14.5h-9v-14.5a.5.5 0 0 0-.5-.5H7.504l8.982-11.677z" overflow="visible" transform="translate(0 -1020.362)"/><path style="line-height:normal;text-indent:0;text-align:start;text-decoration-line:none;text-decoration-style:solid;text-decoration-color:#000;text-transform:none;block-progression:tb;isolation:auto;mix-blend-mode:normal" fill="#25b39e" d="M10.236 1030.486a.5.5 0 0 0-.396.196l-1.25 1.625-2.5 3.25a.5.5 0 0 0 .396.804h4.5v14.5a.5.5 0 0 0 .5.5h10a.5.5 0 0 0 .5-.5v-14.5h4.5a.5.5 0 0 0 .397-.804l-2.5-3.25-1.25-1.625a.5.5 0 0 0-.397-.196h-12.5zm.248 1H22.49l1.1 1.432 1.879 2.443h-3.983a.5.5 0 0 0-.5.5v14.5h-9v-14.5a.5.5 0 0 0-.5-.5H7.504l1.879-2.443 1.101-1.432z" overflow="visible" transform="translate(0 -1020.362)"/></g></svg>